<?xml version="1.0" encoding="UTF-8"?><!DOCTYPE svg PUBLIC "-//W3C//DTD SVG 1.1//EN" "http://www.w3.org/Graphics/SVG/1.1/DTD/svg11.dtd"><svg xmlns="http://www.w3.org/2000/svg" xmlns:xlink="http://www.w3.org/1999/xlink" version="1.1" id="responsive-design" x="0px" y="0px" viewBox="0 0 1010 1010" xml:space="preserve"><g id="responsive-design-responsive-design"><path fill="#545454" d="M239.431 536.315h131.182v94.934H190.496c-3.9 0-7.083-3.138-7.083-7.037v-33.379c0-3.856 3.183-7.084 7.083-7.084h48.935v-47.434zM63.394 461.243V62.923c0-4.37 3.587-7.936 7.958-7.936h488.143c4.349 0 7.935 3.565 7.935 7.936v165.882h63.372V27.617c0-15.22-12.33-27.617-27.595-27.617H27.64C12.374 0 0 12.396 0 27.617V496.93c0 15.265 12.374 27.64 27.64 27.64h342.973v-55.392H71.353c-4.372 0-7.959-3.564-7.959-7.935z"/><path fill="#DAB466" d="M776.98 314.84H421.903v411.883h193.522v23.941h-34.59c-2.778 0-5.065 2.218-5.065 5.02v2.533c0 2.78 2.287 4.999 5.065 4.999h34.59v33.737H421.117c-19.076 0-34.723-15.669-34.723-34.724V279.288c0-19.055 15.647-34.702 34.723-34.702h356.647c19.12 0 34.723 15.647 34.723 34.702v162.61h-35.506V314.84zm-169.11-41.089c0-5.066-4.126-9.213-9.214-9.213-5.089 0-9.214 4.147-9.214 9.213 0 5.11 4.125 9.235 9.214 9.235 5.088 0 9.213-4.125 9.213-9.235zM1010 512.711v442.212c-.09 30.418-24.636 54.987-55.077 55.077H686.28c-30.441-.09-55.009-24.66-55.052-55.077V512.71c.043-30.395 24.61-54.986 55.052-55.031h268.642c30.441.045 54.987 24.636 55.077 55.032zm-221.094-34.185c0 3.228 2.599 5.851 5.827 5.851H846.472c3.204 0 5.85-2.623 5.85-5.851 0-3.206-2.646-5.829-5.85-5.829H794.733a5.83 5.83 0 0 0-5.827 5.829zm48.934 488.098a17.205 17.205 0 0 0-17.26-17.238c-9.504 0-17.26 7.69-17.26 17.238 0 9.527 7.756 17.26 17.26 17.26 9.572 0 17.26-7.733 17.26-17.26zm132.124-448.89c-.023-8.093-6.882-14.998-15.041-14.998H686.28c-8.136 0-14.995 6.905-15.017 14.997v392.155c.022 8.092 6.88 15.018 15.017 15.018h268.642c7.822 0 14.458-6.41 14.928-14.167l.113.09V517.733z"/></g><metadata><rdf:RDF xmlns:rdf="http://www.w3.org/1999/02/22-rdf-syntax-ns#" xmlns:rdfs="http://www.w3.org/2000/01/rdf-schema#" xmlns:dc="http://purl.org/dc/elements/1.1/"><rdf:Description about="https://iconscout.com/legal#licenses" dc:title="responsive,design" dc:description="responsive,design" dc:publisher="Iconscout" dc:date="2017-09-21" dc:format="image/svg+xml" dc:language="en"><dc:creator><rdf:Bag><rdf:li>EcommDesign</rdf:li></rdf:Bag></dc:creator></rdf:Description></rdf:RDF></metadata></svg>